<?xml version="1.0" encoding="UTF-8"?>
<svg xmlns="http://www.w3.org/2000/svg" xmlns:xlink="http://www.w3.org/1999/xlink" viewBox="0 0 96 96" width="96px" height="96px">
<g id="surface366559422">
<path style="fill-rule:nonzero;fill:rgb(0%,0%,0%);fill-opacity:1;stroke-width:5;stroke-linecap:butt;stroke-linejoin:round;stroke:rgb(100%,100%,100%);stroke-opacity:1;stroke-miterlimit:10;" d="M 86 26.878283 C 118.65339 26.878283 145.121716 53.34661 145.121716 86 C 145.121716 112.252317 128.006588 134.494064 104.33198 142.212792 C 104.33918 142.191192 104.346381 142.15519 104.346381 142.15519 C 104.346381 142.15519 100.357411 140.28311 100.443815 136.949368 C 100.537419 133.270012 100.443815 124.701647 100.443815 121.555113 C 100.443815 116.154883 97.023669 112.32432 97.023669 112.32432 C 97.023669 112.32432 123.83761 112.626733 123.83761 84.019915 C 123.83761 72.981846 118.070165 67.236001 118.070165 67.236001 C 118.070165 67.236001 121.101494 55.449099 117.01892 50.452087 C 112.446725 49.955266 104.252777 54.822673 100.760628 57.09797 C 100.760628 57.09797 95.216392 54.822673 86 54.822673 C 76.783607 54.822673 71.239371 57.09797 71.239371 57.09797 C 67.747223 54.822673 59.553274 49.955266 54.981079 50.452087 C 50.898506 55.449099 53.929835 67.236001 53.929835 67.236001 C 53.929835 67.236001 48.162389 72.981846 48.162389 84.019915 C 48.162389 112.626733 74.976331 112.32432 74.976331 112.32432 C 74.976331 112.32432 72.276216 115.37725 71.68579 119.870241 C 69.813711 120.503868 67.055993 121.288702 64.831099 121.288702 C 59.013251 121.288702 54.585063 115.629261 52.964994 113.01555 C 51.366526 110.43784 48.090386 108.270548 45.030256 108.270548 C 43.01417 108.270548 42.034928 109.278591 42.034928 110.423439 C 42.034928 111.575488 44.857449 112.381923 46.715128 114.513213 C 50.646495 119.013405 50.574492 129.129836 64.564687 129.129836 C 66.083952 129.129836 69.187284 128.75542 71.520183 128.438606 C 71.505783 131.628342 71.498583 134.990885 71.548985 136.949368 C 71.635388 140.290311 67.646419 142.16239 67.646419 142.16239 C 67.646419 142.16239 67.660819 142.191192 67.660819 142.219993 C 43.993412 134.494064 26.878283 112.252317 26.878283 86 C 26.878283 53.34661 53.34661 26.878283 86 26.878283 Z M 86 26.878283 " transform="matrix(0.542512,0,0,0.542512,1.344,1.344)"/>
<path style=" stroke:none;fill-rule:nonzero;fill:rgb(0%,0%,0%);fill-opacity:1;" d="M 48 15.925781 C 65.714844 15.925781 80.074219 30.285156 80.074219 48 C 80.074219 62.242188 70.789062 74.308594 57.945312 78.496094 C 57.949219 78.484375 57.953125 78.464844 57.953125 78.464844 C 57.953125 78.464844 55.789062 77.449219 55.835938 75.640625 C 55.886719 73.644531 55.835938 68.996094 55.835938 67.289062 C 55.835938 64.359375 53.980469 62.28125 53.980469 62.28125 C 53.980469 62.28125 68.527344 62.445312 68.527344 46.925781 C 68.527344 40.9375 65.398438 37.820312 65.398438 37.820312 C 65.398438 37.820312 67.042969 31.425781 64.828125 28.714844 C 62.347656 28.445312 57.902344 31.085938 56.007812 32.320312 C 56.007812 32.320312 53 31.085938 48 31.085938 C 43 31.085938 39.992188 32.320312 39.992188 32.320312 C 38.097656 31.085938 33.652344 28.445312 31.171875 28.714844 C 28.957031 31.425781 30.601562 37.820312 30.601562 37.820312 C 30.601562 37.820312 27.472656 40.9375 27.472656 46.925781 C 27.472656 62.445312 42.019531 62.28125 42.019531 62.28125 C 42.019531 62.28125 40.554688 63.9375 40.234375 66.375 C 39.21875 66.71875 37.722656 67.144531 36.515625 67.144531 C 33.359375 67.144531 30.957031 64.074219 30.078125 62.65625 C 29.210938 61.257812 27.433594 60.082031 25.773438 60.082031 C 24.679688 60.082031 24.148438 60.628906 24.148438 61.25 C 24.148438 61.875 25.679688 62.3125 26.6875 63.46875 C 28.820312 65.910156 28.78125 71.398438 36.371094 71.398438 C 37.195312 71.398438 38.878906 71.195312 40.144531 71.023438 C 40.136719 72.753906 40.132812 74.578125 40.160156 75.640625 C 40.207031 77.453125 38.042969 78.46875 38.042969 78.46875 C 38.042969 78.46875 38.050781 78.484375 38.050781 78.5 C 25.210938 74.308594 15.925781 62.242188 15.925781 48 C 15.925781 30.285156 30.285156 15.925781 48 15.925781 Z M 48 15.925781 "/>
</g>
</svg>
